#!OML:ASF F:\VICON\USERDATA\INSTALL\rory3\rory3.ASF
:FULLY-SPECIFIED
:DEGREES
27
root 0.32540870370545066 17.853245702706914 -0.7009040323574407 -1.7836309714043213 -4.674863791874862 -6.464428220381322
lfemur -24.221265241622078 1.5126678064874253 -11.361456087227452
ltibia 52.534573811575086
lfoot -6.073413747841302 0.8549038132777373
ltoes -9.25633475212734
rfemur -6.25777667728583 4.682924088444405 33.158285234294226
rtibia 27.399813721349382
rfoot 2.048388101236702 -10.826244357484422
rtoes 8.812797947252692
lowerback 11.611804290117592 1.249054184719584 3.1782115554453387
upperback 0.1349429314089708 2.8688181449321193 2.0361691275666387
thorax -6.056384490864186 1.32897810099117 -1.2357670157186307
lowerneck -16.010202302917442 -3.8063302960807484 -1.4808599284711794
upperneck 21.378260519289704 -5.35011457048066 1.586494289849863
head 9.661427100979939 -2.3913781906285165 0.08192456369745515
lclavicle -2.4462330702322345e-15 -2.7078598631305284e-15
lhumerus -37.31850728540125 8.575825187637387 82.39300788328555
lradius 22.398056551537593
lwrist 11.514191271044428
lhand -29.47757862179109 16.768205618875292
lfingers nan
lthumb -2.276899651371032 47.425701297391825
rclavicle -2.5933922165977263e-15 -2.807298605358313e-15
rhumerus -23.91116590648898 -16.839932213972325 -72.78451421409345
rradius 30.842393454491653
rwrist 3.5543118970999776
rhand -18.29376380303534 25.683514703675687
rfingers nan
rthumb 8.251240529243772 -4.341712355383471
28
root 0.36213270541623943 17.87871646623752 0.32660417140415987 -1.763764968115824 -4.650172953425643 -6.677626181522933
lfemur -24.556609772650965 1.1044587534027541 -11.85764874875293
ltibia 45.85788670609082
lfoot -5.406832810794534 1.1581288233319431
ltoes -10.863169329854117
rfemur -6.533561224902939 4.824569370577112 33.356086185710495
rtibia 30.912412785192043
rfoot 1.723345356014308 -11.617918918661495
rtoes 9.07386637958237
lowerback 11.616924323768886 1.3595826412843641 3.3037684218560024
upperback 0.11366023098232188 2.9595416181614524 1.8957576736456931
thorax -5.894240515478045 1.3817112261305442 -1.3380448359734112
lowerneck -15.935460962064173 -3.802903426612886 -1.5038816861955908
upperneck 21.361656276439703 -5.311444789550183 1.5907225637072728
head 9.69440413847556 -2.363988445288075 0.08541703177292803
lclavicle -2.4706185060670915e-15 -2.7239250348798393e-15
lhumerus -37.272261742341364 9.20440530112702 82.16523661718233
lradius 23.583000352967545
lwrist 11.281649314732514
lhand -29.743147349719386 17.05987478059676
lfingers nan
lthumb -2.5838837503519767 47.615204037683604
rclavicle -2.567491085301878e-15 -2.7961506500602723e-15
rhumerus -23.73599151121627 -16.150669177254745 -72.36944077450148
rradius 32.69108703482681
rwrist 5.3386510253570245
rhand -18.300686960835588 25.399192268209895
rfingers nan
rthumb 8.351460097001947 -4.630093058159117
29
root 0.3990822111444745 17.904413261681523 1.2865904490226558 -1.7015397070121103 -4.465220692040486 -6.561614936292199
lfemur -24.008777981556378 0.6354421095916085 -12.532791971829315
ltibia 38.51379305435117
lfoot -4.6881418864513 0.2080390048342995
ltoes -13.531332299624886
rfemur -6.681568084417644 4.975796621856567 33.292308303544175
rtibia 34.81775516568445
rfoot 1.4591917172470943 -12.255016913920212
rtoes 10.287309044678768
lowerback 11.65027623725927 1.5587896302205808 3.476258478035028
upperback -0.0007772328182452659 3.2209190458643353 1.7391259697671848
thorax -5.817591719253868 1.4777991201254599 -1.5714094514182608
lowerneck -15.823626334386061 -3.8447362815454147 -1.6302099146195006
upperneck 21.55430141285653 -5.358794552166645 1.6404056356478813
head 9.796083246715412 -2.3794338502372536 0.08705939161776544
lclavicle -2.4685541398340054e-15 -2.7223181530298435e-15
lhumerus -36.93026308103223 8.863986372187966 82.18844564630652
lradius 24.718409312238126
lwrist 10.980816119119035
lhand -29.708409937808355 17.7412077683041
lfingers nan
lthumb -2.6316836203337766 48.08475547845088
rclavicle -2.5951440526977314e-15 -2.811985307476833e-15
rhumerus -23.786762563148475 -15.625138905763318 -72.16083928273088
rradius 34.06483531437339
rwrist 6.729969276295445
rhand -18.08564377677806 24.504419586630338
rfingers nan
rthumb 8.47699951185662 -5.661245803539973
30
root 0.4312443562095402 17.926113099249378 2.9321541140473784 -1.7391478861448468 -4.189571534992836 -6.42971570534543
lfemur -22.21849996024303 -0.018901958850099376 -13.835131298123827
ltibia 30.930947502967793
lfoot -3.6510760611892836 -1.0812824579498292
ltoes -14.334523182373188
rfemur -6.536891519644715 5.000279757101039 33.12360224595989
rtibia 39.53557512360676
rfoot 1.0447933023670064 -12.554433395127752
rtoes 10.300680019477436
lowerback 11.62390137715899 1.6673341331736484 3.5637016107555235
upperback -0.04043652383809347 3.128041084729989 1.6745476648082902
thorax -5.727307619599104 1.461819802506131 -1.6937719014367218
lowerneck -15.622923432224246 -3.8792763609919247 -1.6649338135898866
upperneck 21.541045438614255 -5.459997419236398 1.7691327212599615
head 9.746825076885653 -2.4110342092993498 0.13720482708710335
lclavicle -2.482842179491822e-15 -2.7320724746957227e-15
lhumerus -36.451224920634786 8.257292329070111 82.41797907057703
lradius 25.924893189435682
lwrist 11.018358620528993
lhand -29.837209075014584 18.194815607741443
lfingers nan
lthumb -2.8327911694225367 48.68383209614288
rclavicle -2.5811797041216147e-15 -2.8056539875558145e-15
rhumerus -24.137060373091945 -14.794182502958044 -72.50570383234006
rradius 34.83274329424266
rwrist 6.912969607266191
rhand -17.869883477383425 23.581079296825152
rfingers nan
rthumb 8.553919119052269 -6.709831795483689
